<mxfile host="app.diagrams.net" agent="Mozilla/5.0 (Macintosh; Intel Mac OS X 10_15_7) AppleWebKit/605.1.15 (KHTML, like Gecko) Version/18.1 Safari/605.1.15" version="24.8.3">
  <diagram name="PÃ¡gina-1" id="0xhb3smZ4DYsTCkRgTRE">
    <mxGraphModel dx="1434" dy="855" grid="1" gridSize="10" guides="1" tooltips="1" connect="1" arrows="1" fold="1" page="1" pageScale="1" pageWidth="827" pageHeight="1169" math="0" shadow="0">
      <root>
        <mxCell id="0" />
        <mxCell id="1" parent="0" />
        <mxCell id="5OMCsBd2RbS64b_-Is5c-1" value="Servicio Control de eventos" style="text;html=1;align=left;verticalAlign=middle;whiteSpace=wrap;rounded=0;" vertex="1" parent="1">
          <mxGeometry x="40" y="40" width="170" height="30" as="geometry" />
        </mxCell>
        <mxCell id="5OMCsBd2RbS64b_-Is5c-4" style="edgeStyle=orthogonalEdgeStyle;rounded=0;orthogonalLoop=1;jettySize=auto;html=1;entryX=0;entryY=0.5;entryDx=0;entryDy=0;" edge="1" parent="1" source="5OMCsBd2RbS64b_-Is5c-2" target="5OMCsBd2RbS64b_-Is5c-3">
          <mxGeometry relative="1" as="geometry" />
        </mxCell>
        <mxCell id="5OMCsBd2RbS64b_-Is5c-2" value="" style="shape=cylinder3;whiteSpace=wrap;html=1;boundedLbl=1;backgroundOutline=1;size=15;" vertex="1" parent="1">
          <mxGeometry x="80" y="232.5" width="77.5" height="95" as="geometry" />
        </mxCell>
        <mxCell id="5OMCsBd2RbS64b_-Is5c-3" value="Java 17 Springboot&lt;div&gt;Control de visitas&lt;/div&gt;" style="whiteSpace=wrap;html=1;aspect=fixed;" vertex="1" parent="1">
          <mxGeometry x="260" y="190" width="180" height="180" as="geometry" />
        </mxCell>
      </root>
    </mxGraphModel>
  </diagram>
</mxfile>
